<?xml version="1.0" encoding="utf-8"?>
<!-- Generator: Adobe Illustrator 17.0.0, SVG Export Plug-In . SVG Version: 6.00 Build 0)  -->
<!DOCTYPE svg PUBLIC "-//W3C//DTD SVG 1.1//EN" "http://www.w3.org/Graphics/SVG/1.1/DTD/svg11.dtd">
<svg version="1.1" id="Layer_1" xmlns="http://www.w3.org/2000/svg" xmlns:xlink="http://www.w3.org/1999/xlink" x="0px" y="0px"
     width="1279px" height="702px" viewBox="0 0 1279 702" enable-background="new 0 0 1279 702" xml:space="preserve">
<g>
    <path fill="#FBFFD5" stroke="#FBFFD5" d="M1395.436,814.227l54.053-175.921l-195.912-29.825L1395.436,814.227z"/>
    <path fill="#F8FCDC" stroke="#F8FCDC" d="M1395.436,814.227L1253.577,608.48l22.042,215.012L1395.436,814.227z"/>
    <path fill="#E9F6D3" stroke="#E9F6D3" d="M1395.436,814.227l-119.817,9.266l-410.287,46.6L1395.436,814.227z"/>
    <path fill="#EBF8C9" stroke="#EBF8C9" d="M1275.619,823.493l-22.042-215.012l-100.75,54.702L1275.619,823.493z"/>
    <path fill="#E9F6D1" stroke="#E9F6D1" d="M1275.619,823.493l-122.792-160.31l-36.951,121.746L1275.619,823.493z"/>
    <path fill="#E5F4D0" stroke="#E5F4D0" d="M1275.619,823.493l-159.742-38.564l-69.814,19.744L1275.619,823.493z"/>
    <path fill="#DAF0C9" stroke="#DAF0C9" d="M1275.619,823.493l-229.556-18.82l-180.731,65.42L1275.619,823.493z"/>
    <path fill="#DCF1BF" stroke="#DCF1BF" d="M1115.877,784.929l36.951-121.746l-152.759,26.206L1115.877,784.929z"/>
    <path fill="#D9EFC7" stroke="#D9EFC7" d="M1115.877,784.929l-115.808-95.54l45.994,115.284L1115.877,784.929z"/>
    <path fill="#CCEAC3" stroke="#CCEAC3" d="M1046.063,804.673l-45.994-115.284L865.332,870.093L1046.063,804.673z"/>
    <path fill="#BFE5B6" stroke="#BFE5B6" d="M865.332,870.093l134.736-180.704l-207.532-70.145L865.332,870.093z"/>
    <path fill="#B1DEAE" stroke="#B1DEAE" d="M865.332,870.093l-72.796-250.849L690.942,684.71L865.332,870.093z"/>
    <path fill="#ADDBB4" stroke="#ADDBB4" d="M865.332,870.093L690.942,684.71l-5.945,137.193L865.332,870.093z"/>
    <path fill="#96CFA9" stroke="#96CFA9" d="M865.332,870.093l-180.336-48.19L186.59,794.039L865.332,870.093z"/>
    <path fill="#82B69C" stroke="#82B69C" d="M865.332,870.093L186.59,794.039L35.737,810.383L865.332,870.093z"/>
    <path fill="#9DD4A6" stroke="#9DD4A6" d="M684.997,821.903l5.945-137.193l-161.802,15.885L684.997,821.903z"/>
    <path fill="#96CFA8" stroke="#96CFA8" d="M684.997,821.903L529.139,700.595l-12.94,92.651L684.997,821.903z"/>
    <path fill="#8BC2A2" stroke="#8BC2A2" d="M684.997,821.903l-168.797-28.657l-329.61,0.793L684.997,821.903z"/>
    <path fill="#8CC39C" stroke="#8CC39C" d="M516.199,793.246l12.94-92.651l-144.199,8.647L516.199,793.246z"/>
    <path fill="#88BD9E" stroke="#88BD9E" d="M516.199,793.246l-131.26-84.004l-8.635,55.473L516.199,793.246z"/>
    <path fill="#81B69C" stroke="#81B69C" d="M516.199,793.246l-139.895-28.53L186.59,794.039L516.199,793.246z"/>
    <path fill="#7EB191" stroke="#7EB191" d="M376.305,764.715l8.635-55.473l-195.637-12.813L376.305,764.715z"/>
    <path fill="#80A993" stroke="#80A993" d="M376.305,764.715l-187.002-68.287l-2.713,97.61L376.305,764.715z"/>
    <path fill="#809C90" stroke="#809C90" d="M186.59,794.039l2.713-97.61L35.737,810.383L186.59,794.039z"/>
    <path fill="#7E9983" stroke="#7E9983" d="M35.737,810.383l153.566-113.955l-67.842-57.882L35.737,810.383z"/>
    <path fill="#7C8E78" stroke="#7C8E78" d="M35.737,810.383l85.724-171.837l-235.188-16.248L35.737,810.383z"/>
    <path fill="#80857F" stroke="#80857F" d="M35.737,810.383l-149.464-188.084l6.49,174.297L35.737,810.383z"/>
    <path fill="#E6FCC1" stroke="#E6FCC1" d="M1449.489,638.306l32.546-145.498l-144.042,40.857L1449.489,638.306z"/>
    <path fill="#EFFEBF" stroke="#EFFEBF" d="M1449.489,638.306l-111.496-104.641l-84.416,74.816L1449.489,638.306z"/>
    <path fill="#D1F5AC" stroke="#D1F5AC" d="M1253.577,608.48l84.416-74.816l-220.745-65.211L1253.577,608.48z"/>
    <path fill="#D7F5AC" stroke="#D7F5AC" d="M1253.577,608.48l-136.329-140.027l35.579,194.729L1253.577,608.48z"/>
    <path fill="#D3F1A8" stroke="#D3F1A8" d="M1152.827,663.183l-35.579-194.729l-117.18,220.935L1152.827,663.183z"/>
    <path fill="#B8EA9B" stroke="#B8EA9B" d="M1000.069,689.389l117.18-220.935l-173.645,14.069L1000.069,689.389z"/>
    <path fill="#B1E598" stroke="#B1E598" d="M1000.069,689.389l-56.465-206.867l-98.696,47.786L1000.069,689.389z"/>
    <path fill="#B5E49D" stroke="#B5E49D" d="M1000.069,689.389L844.907,530.308l-52.371,88.936L1000.069,689.389z"/>
    <path fill="#96DA8B" stroke="#96DA8B" d="M792.537,619.244l52.371-88.936l-199.766-5.094L792.537,619.244z"/>
    <path fill="#9DD990" stroke="#9DD990" d="M792.537,619.244l-147.395-94.03l45.8,159.496L792.537,619.244z"/>
    <path fill="#93D38F" stroke="#93D38F" d="M690.942,684.71l-45.8-159.496L529.139,700.595L690.942,684.71z"/>
    <path fill="#84CC81" stroke="#84CC81" d="M529.139,700.595l116.002-175.381l-126.432,1.055L529.139,700.595z"/>
    <path fill="#7DC57D" stroke="#7DC57D" d="M529.139,700.595l-10.43-174.326l-71.122-12.296L529.139,700.595z"/>
    <path fill="#82C187" stroke="#82C187" d="M529.139,700.595l-81.552-186.622L384.94,709.242L529.139,700.595z"/>
    <path fill="#75B778" stroke="#75B778" d="M384.94,709.242l62.648-195.269l-164.268,45.118L384.94,709.242z"/>
    <path fill="#79AD80" stroke="#79AD80" d="M384.94,709.242L283.319,559.091l-94.016,137.338L384.94,709.242z"/>
    <path fill="#77A376" stroke="#77A376" d="M189.303,696.429l94.016-137.338l-161.858,79.456L189.303,696.429z"/>
    <path fill="#679A66" stroke="#679A66" d="M121.461,638.546l161.858-79.456L35.708,473.18L121.461,638.546z"/>
    <path fill="#628E5E" stroke="#628E5E" d="M121.461,638.546L35.708,473.18L-4.41,509.01L121.461,638.546z"/>
    <path fill="#718C62" stroke="#718C62" d="M121.461,638.546L-4.41,509.01l-109.317,113.289L121.461,638.546z"/>
    <path fill="#578155" stroke="#578155" d="M-113.727,622.299L-4.41,509.01l-3.872-117.804L-113.727,622.299z"/>
    <path fill="#367344" stroke="#367344" d="M-113.727,622.299L-8.282,391.206l-61.266-203.759L-113.727,622.299z"/>
    <path fill="#195E32" stroke="#195E32" d="M-113.727,622.299l44.179-434.852l-46.015-101.015L-113.727,622.299z"/>
    <path fill="#A2E3A4" stroke="#A2E3A4" d="M1482.035,492.807l-6.693-326.387l-66.096,176.471L1482.035,492.807z"/>
    <path fill="#C7F6B3" stroke="#C7F6B3" d="M1482.035,492.807l-72.789-149.916l-71.253,190.773L1482.035,492.807z"/>
    <path fill="#BCF0A7" stroke="#BCF0A7" d="M1337.993,533.665l71.253-190.773l-112.439,57.147L1337.993,533.665z"/>
    <path fill="#BCF1A4" stroke="#BCF1A4" d="M1337.993,533.665l-41.186-133.626l-179.558,68.415L1337.993,533.665z"/>
    <path fill="#A6E797" stroke="#A6E797" d="M1117.248,468.453l179.558-68.415l-128.437-19.045L1117.248,468.453z"/>
    <path fill="#96E08B" stroke="#96E08B" d="M1117.248,468.453l51.122-87.459l-149.614-25.491L1117.248,468.453z"/>
    <path fill="#96E08C" stroke="#96E08C" d="M1117.248,468.453l-98.492-112.95l-75.153,127.019L1117.248,468.453z"/>
    <path fill="#78D37E" stroke="#78D37E" d="M943.603,482.522l75.153-127.019l-210.713-36.062L943.603,482.522z"/>
    <path fill="#81D883" stroke="#81D883" d="M943.603,482.522l-135.56-163.08l36.864,210.866L943.603,482.522z"/>
    <path fill="#69CC77" stroke="#69CC77" d="M844.907,530.308l-36.864-210.866l-99.221,31.113L844.907,530.308z"/>
    <path fill="#76D27D" stroke="#76D27D" d="M844.907,530.308L708.822,350.555l-63.681,174.659L844.907,530.308z"/>
    <path fill="#53C16B" stroke="#53C16B" d="M645.141,525.214l63.681-174.659l-162.855-32.538L645.141,525.214z"/>
    <path fill="#5DC471" stroke="#5DC471" d="M645.141,525.214l-99.174-207.197L518.71,526.269L645.141,525.214z"/>
    <path fill="#4AB666" stroke="#4AB666" d="M518.71,526.269l27.258-208.252l-117.566,87.754L518.71,526.269z"/>
    <path fill="#5BBA6E" stroke="#5BBA6E" d="M518.71,526.269l-90.308-120.498l19.186,108.202L518.71,526.269z"/>
    <path fill="#57B26B" stroke="#57B26B" d="M447.587,513.973l-19.186-108.202L283.319,559.091L447.587,513.973z"/>
    <path fill="#3EA45E" stroke="#3EA45E" d="M283.319,559.091l145.082-153.319l-151.525-93.305L283.319,559.091z"/>
    <path fill="#359354" stroke="#359354" d="M283.319,559.091l-6.442-246.625l-153.669,2.425L283.319,559.091z"/>
    <path fill="#459257" stroke="#459257" d="M283.319,559.091l-160.111-244.2l-87.5,158.289L283.319,559.091z"/>
    <path fill="#347F49" stroke="#347F49" d="M35.708,473.18l87.5-158.289l-131.49,76.315L35.708,473.18z"/>
    <path fill="#488451" stroke="#488451" d="M35.708,473.18l-43.99-81.974L-4.41,509.01L35.708,473.18z"/>
    <path fill="#8ACA90" stroke="#8ACA90" d="M1409.246,342.892l66.096-176.471l-154.878,4.739L1409.246,342.892z"/>
    <path fill="#97DD94" stroke="#97DD94" d="M1409.246,342.892l-88.782-171.733l-23.657,228.88L1409.246,342.892z"/>
    <path fill="#90DC8E" stroke="#90DC8E" d="M1296.807,400.039l23.657-228.88L1168.37,380.994L1296.807,400.039z"/>
    <path fill="#79C57E" stroke="#79C57E" d="M1168.37,380.994l152.094-209.835l-199.826-7.78L1168.37,380.994z"/>
    <path fill="#7ACF7C" stroke="#7ACF7C" d="M1168.37,380.994l-47.732-217.615l-101.882,192.124L1168.37,380.994z"/>
    <path fill="#65BE72" stroke="#65BE72" d="M1018.756,355.503l101.882-192.124L990.04,211.315L1018.756,355.503z"/>
    <path fill="#5FBF6F" stroke="#5FBF6F" d="M1018.756,355.503L990.04,211.315l-105.035,22.646L1018.756,355.503z"/>
    <path fill="#5DC470" stroke="#5DC470" d="M1018.756,355.503L885.005,233.961l-76.962,85.481L1018.756,355.503z"/>
    <path fill="#47B564" stroke="#47B564" d="M808.043,319.442l76.962-85.481l-198.253,24.917L808.043,319.442z"/>
    <path fill="#47BA65" stroke="#47BA65" d="M808.043,319.442l-121.291-60.564l22.07,91.677L808.043,319.442z"/>
    <path fill="#3BB45F" stroke="#3BB45F" d="M708.822,350.555l-22.07-91.677l-140.785,59.139L708.822,350.555z"/>
    <path fill="#26A053" stroke="#26A053" d="M545.967,318.017l140.785-59.139L551.495,156.583L545.967,318.017z"/>
    <path fill="#1D944D" stroke="#1D944D" d="M545.967,318.017l5.528-161.434l-118.689,78.024L545.967,318.017z"/>
    <path fill="#2AA455" stroke="#2AA455" d="M545.967,318.017l-113.161-83.41l-4.405,171.164L545.967,318.017z"/>
    <path fill="#219950" stroke="#219950" d="M428.402,405.771l4.405-171.164l-155.929,77.859L428.402,405.771z"/>
    <path fill="#0E8144" stroke="#0E8144" d="M276.877,312.466l155.929-77.859l-145.69-56.084L276.877,312.466z"/>
    <path fill="#09703B" stroke="#09703B" d="M276.877,312.466l10.239-133.943l-160.29-14.443L276.877,312.466z"/>
    <path fill="#12743E" stroke="#12743E" d="M276.877,312.466L126.826,164.08l-3.618,150.811L276.877,312.466z"/>
    <path fill="#0A5D32" stroke="#0A5D32" d="M123.208,314.891l3.618-150.811l-196.374,23.367L123.208,314.891z"/>
    <path fill="#196A39" stroke="#196A39" d="M123.208,314.891L-69.548,187.447l61.266,203.759L123.208,314.891z"/>
    <path fill="#809E81" stroke="#809E81" d="M1475.342,166.42l-17.167-298.166l1.347,248.606L1475.342,166.42z"/>
    <path fill="#80B789" stroke="#80B789" d="M1475.342,166.42l-15.82-49.56l-139.057,54.298L1475.342,166.42z"/>
    <path fill="#7EAA7C" stroke="#7EAA7C" d="M1320.464,171.159l139.057-54.298l-191.037-97.879L1320.464,171.159z"/>
    <path fill="#72A371" stroke="#72A371" d="M1320.464,171.159l-51.98-152.178l-104.926,69.522L1320.464,171.159z"/>
    <path fill="#6CAD72" stroke="#6CAD72" d="M1320.464,171.159l-156.906-82.656l-42.921,74.876L1320.464,171.159z"/>
    <path fill="#5DA164" stroke="#5DA164" d="M1120.638,163.379l42.921-74.876L952.21,108.707L1120.638,163.379z"/>
    <path fill="#54A866" stroke="#54A866" d="M1120.638,163.379L952.21,108.707l37.83,102.607L1120.638,163.379z"/>
    <path fill="#4AA964" stroke="#4AA964" d="M990.04,211.315l-37.83-102.607l-67.205,125.253L990.04,211.315z"/>
    <path fill="#429759" stroke="#429759" d="M885.005,233.961l67.205-125.253l-102.02-78.34L885.005,233.961z"/>
    <path fill="#369D59" stroke="#369D59" d="M885.005,233.961L850.19,30.367L686.752,258.878L885.005,233.961z"/>
    <path fill="#2D884C" stroke="#2D884C" d="M686.752,258.878L850.19,30.367l-160.585-7.526L686.752,258.878z"/>
    <path fill="#1F8B4A" stroke="#1F8B4A" d="M686.752,258.878l2.853-236.037l-138.11,133.742L686.752,258.878z"/>
    <path fill="#18763E" stroke="#18763E" d="M551.495,156.583l138.11-133.742L540.729,44.484L551.495,156.583z"/>
    <path fill="#0E6C39" stroke="#0E6C39" d="M551.495,156.583L540.729,44.484L354.794,60.347L551.495,156.583z"/>
    <path fill="#0A783F" stroke="#0A783F" d="M551.495,156.583L354.794,60.347l78.012,174.26L551.495,156.583z"/>
    <path fill="#026F3B" stroke="#026F3B" d="M432.806,234.607l-78.012-174.26l-67.678,118.176L432.806,234.607z"/>
    <path fill="#005A30" stroke="#005A30" d="M287.116,178.523l67.678-118.176l-105.895,8.038L287.116,178.523z"/>
    <path fill="#005A30" stroke="#005A30" d="M287.116,178.523L248.899,68.386L126.826,164.08L287.116,178.523z"/>
    <path fill="#004F2B" stroke="#004F2B" d="M126.826,164.08l122.073-95.694l-133.298,53.984L126.826,164.08z"/>
    <path fill="#004D2A" stroke="#004D2A" d="M126.826,164.08l-11.225-41.711l-185.149,65.078L126.826,164.08z"/>
    <path fill="#003D22" stroke="#003D22" d="M-69.548,187.447l185.149-65.078l-231.165-35.937L-69.548,187.447z"/>
    <path fill="#809274" stroke="#809274" d="M1459.521,116.861l-1.347-248.606l-189.69,150.727L1459.521,116.861z"/>
    <path fill="#7B7F64" stroke="#7B7F64" d="M1268.484,18.981l189.69-150.727L1241.458-91.32L1268.484,18.981z"/>
    <path fill="#6F7C5C" stroke="#6F7C5C" d="M1268.484,18.981L1241.458-91.32l-63.843-15.422L1268.484,18.981z"/>
    <path fill="#6C8A60" stroke="#6C8A60" d="M1268.484,18.981l-90.87-125.724l-14.056,195.245L1268.484,18.981z"/>
    <path fill="#617A52" stroke="#617A52" d="M1163.559,88.503l14.056-195.245l-189.974-4.722L1163.559,88.503z"/>
    <path fill="#568756" stroke="#568756" d="M1163.559,88.503L987.641-111.465L952.21,108.707L1163.559,88.503z"/>
    <path fill="#477C4D" stroke="#477C4D" d="M952.21,108.707l35.431-220.172L850.19,30.367L952.21,108.707z"/>
    <path fill="#416A42" stroke="#416A42" d="M850.19,30.367l137.451-141.832L816.09-83.59L850.19,30.367z"/>
    <path fill="#34693F" stroke="#34693F" d="M850.19,30.367L816.09-83.59l-91.748,34.557L850.19,30.367z"/>
    <path fill="#2E6F40" stroke="#2E6F40" d="M850.19,30.367l-125.848-79.4l-34.736,71.874L850.19,30.367z"/>
    <path fill="#1E5D33" stroke="#1E5D33" d="M689.605,22.841l34.736-71.874l-224.65-34.72L689.605,22.841z"/>
    <path fill="#176033" stroke="#176033" d="M689.605,22.841L499.692-83.753l41.037,128.237L689.605,22.841z"/>
    <path fill="#0C562E" stroke="#0C562E" d="M540.729,44.484L499.692-83.753l-144.898,144.1L540.729,44.484z"/>
    <path fill="#094425" stroke="#094425" d="M354.794,60.347l144.898-144.1l-57.761-39.493L354.794,60.347z"/>
    <path fill="#00391F" stroke="#00391F" d="M354.794,60.347l87.137-183.594L203.449-86.861L354.794,60.347z"/>
    <path fill="#004124" stroke="#004124" d="M354.794,60.347L203.449-86.861l45.45,155.247L354.794,60.347z"/>
    <path fill="#002C19" stroke="#002C19" d="M248.899,68.386l-45.45-155.247l-80.159-1.929L248.899,68.386z"/>
    <path fill="#003A20" stroke="#003A20" d="M248.899,68.386L123.289-88.79l-7.688,211.159L248.899,68.386z"/>
    <path fill="#002D1A" stroke="#002D1A" d="M115.601,122.369l7.688-211.159L-115.564,86.432L115.601,122.369z"/>
    <path fill="#00110C" stroke="#00110C" d="M-115.564,86.432L123.289-88.79l-236.168-21.139L-115.564,86.432z"/>
    <path fill="#4C6A43" stroke="#4C6A43" d="M1458.174-131.745l-1016.244,8.499l545.71,11.782L1458.174-131.745z"/>
    <path fill="#6D7856" stroke="#6D7856" d="M1458.174-131.745l-470.534,20.281l189.974,4.722L1458.174-131.745z"/>
    <path fill="#777C5F" stroke="#777C5F" d="M1458.174-131.745l-280.56,25.003l63.843,15.422L1458.174-131.745z"/>
    <path fill="#2D5C35" stroke="#2D5C35" d="M987.641-111.465l-545.71-11.782L816.09-83.59L987.641-111.465z"/>
    <path fill="#17502A" stroke="#17502A" d="M816.09-83.59l-374.159-39.657l57.761,39.493L816.09-83.59z"/>
    <path fill="#245732" stroke="#245732" d="M816.09-83.59l-316.398-0.164l224.65,34.72L816.09-83.59z"/>
    <path fill="#001E11" stroke="#001E11" d="M441.931-123.246l-554.809,13.317L123.289-88.79L441.931-123.246z"/>
    <path fill="#002A17" stroke="#002A17" d="M441.931-123.246L123.289-88.79l80.159,1.929L441.931-123.246z"/>
</g>
</svg>